<svg width="16" height="4" viewBox="0 0 16 4" fill="none" xmlns="http://www.w3.org/2000/svg">
<path d="M2 4C3.10455 4 4 3.10449 4 2C4 0.895508 3.10455 0 2 0C0.895447 0 0 0.895508 0 2C0 3.10449 0.895447 4 2 4Z" fill="#ABA4A3"/>
<path d="M8 4C9.10455 4 10 3.10449 10 2C10 0.895508 9.10455 0 8 0C6.89545 0 6 0.895508 6 2C6 3.10449 6.89545 4 8 4Z" fill="#ABA4A3"/>
<path d="M16 2C16 3.10449 15.1046 4 14 4C12.8954 4 12 3.10449 12 2C12 0.895508 12.8954 0 14 0C15.1046 0 16 0.895508 16 2Z" fill="#ABA4A3"/>
</svg>
